<svg xmlns="http://www.w3.org/2000/svg" width="798.02" height="592.945" viewBox="0 0 798.02 592.945"><g transform="translate(0 -0.01)"><rect width="486.11" height="2.06" transform="translate(89.16 559)" fill="#3f3d56"/><path d="M405.94,342.83s-10.32,46.29,10.32,38.06,8.25-40.12,8.25-40.12Z" transform="translate(-58.98 -67.04)" fill="#ffb9b9"/><path d="M598.86,358.26s24.76,29.83,9.29,36-23.73-27.78-21.67-30.87S598.86,358.26,598.86,358.26Z" transform="translate(-58.98 -67.04)" fill="#ffb9b9"/><ellipse cx="30.95" cy="30.86" rx="30.95" ry="30.86" transform="translate(450.13 18.59)" fill="#ffb9b9"/><path d="M457.86,61.28l-4.12,31.9,34.04,12.34L495,69.51Z" fill="#ffb9b9"/><path d="M535.93,159.7s-17.49-8.61-21.12-15.62L507,151.47s-55.71-5.14-64,22.64-1,128.59-1,128.59S430.7,348,433.8,349s41.26,19.55,94.91,9.26c0,0,23.73-4.12,27.85-1s-2.06-49.38-2.06-49.38,41.27-92.59,34-103.91-39.2-35-39.2-35l2.07-11.32S537,163.82,535.93,159.7Z" transform="translate(-58.98 -67.04)" fill="#cfcce0"/><path d="M451.33,166.9s-18.57,9.26-21.66,23.67-32,133.74-28.89,140.94S402.85,348,402.85,348l26.82-3.09s-5.16-7.2-2.06-10.28,6.19-13.38,4.12-17.49-4.12,3.08,7.22-10.29S476.09,171,451.33,166.9Z" transform="translate(-58.98 -67.04)" fill="#cfcce0"/><path d="M582.35,201.88s8.77.52,10.84,14.92,5.67,103.39,5.67,103.39,13.41,28.81,8.25,32.92-2.06,10.29-2.06,10.29l-18.57,5.15-40.23-62.76Z" transform="translate(-58.98 -67.04)" fill="#cfcce0"/><path d="M436.89,344.88s-6.19,1-6.19,23.67-11.35,92.59-4.13,103.9,8.26,113.17,8.26,113.17,19.6,8.23,36.11-18.52L473,552.7l4.13-70,16.5-87.44,22.7,96.7s-3.1,116.25,8.25,116.25,33-9.25,33-9.25,5.15-10.29,3.09-15.44-4.13-4.11-2.06-8.23,5.16-111.11,5.16-111.11-4.13-110.08-9.29-113.16S436.89,344.88,436.89,344.88Z" transform="translate(-58.98 -67.04)" fill="#2f2e41"/><path d="M436.89,581.51,420.38,599s-29.91,27.77-4.12,28.8,40.23-16.46,40.23-18.52,1-9.26,8.26-9.26,24.76-17.49,20.63-24.69-16.51-10.28-16.51-10.28Z" transform="translate(-58.98 -67.04)" fill="#2f2e41"/><path d="M525.61,604.14s-12.38,24.69-5.15,29.83,9.28,7.21,9.28,7.21,6.19-1,5.16,8.23,37.14,14.4,39.2,7.2,1-21.61-3.09-25.72S554.5,598,554.5,598,541.09,582.53,525.61,604.14Z" transform="translate(-58.98 -67.04)" fill="#2f2e41"/><path d="M571.29,91.71l5.83-.83S569,76,553.3,73.28l5.51-3.71s-9.58-6.83-22,2c-6.51,4.61-14.07,10.06-19.63,16.92l-5.69-1.39,1.1,5.79L503,96l8.76,1.14a29.783,29.783,0,0,0-2.35,8.59,11.51,11.51,0,0,0,2.31,8.32h0s9.92-12,10.44-14.11l-1.3,5.3s6.48-3.48,7.26-6.66l2,4.42L533,97.55l16.44,10.18-1.73-5.47,10.72,4.29-2.92-6.89s10.86,10,9.92,15.9,1.37,12.37,1.37,12.37S583.34,103.07,571.29,91.71Z" transform="translate(-58.98 -67.04)" fill="#2f2e41"/><rect width="165.21" height="1.97" transform="translate(632.81 374.36)" fill="#3f3d56"/><rect width="39.82" height="39.71" transform="translate(140.65 526.26)" fill="#cfcce0"/><path d="M234.21,627.79H192.29V586h41.92Zm-39.82-2.1h37.72V588.07H194.39Z" transform="translate(-58.98 -67.04)" fill="#3f3d56"/><path d="M198.84,188.97l25.2-9.72,9.41,24.27-25.2,9.72Z" fill="#f2f2f2"/><path d="M287.88,268.64l-26.53,10.23-9.91-25.54L278,243.1Zm-25.7,8.45,23.88-9.21-8.92-23-23.88,9.21Z" transform="translate(-58.98 -67.04)" fill="#3f3d56"/><path d="M678.36,449.55l8.78,25.48-24.67,8.46L653.69,458Z" fill="#f2f2f2"/><path d="M723.54,546.06l-9.24-26.82,26-8.91,9.25,26.83Zm-7.48-25.93,8.32,24.15,23.37-8-8.32-24.14Z" transform="translate(-58.98 -67.04)" fill="#3f3d56"/><path d="M184.28,415.39c14.78.32,26.53,11,26.53,11s-12.2,10.16-27,9.85-26.53-11-26.53-11S169.5,415.08,184.28,415.39Z" transform="translate(-58.98 -67.04)" fill="#39bed5"/><path d="M110,365.1c13.35,6.32,28.66,2,28.66,2s-6.34-14.54-19.68-20.87-28.66-2-28.66-2S96.64,358.77,110,365.1Z" transform="translate(-58.98 -67.04)" fill="#39bed5"/><path d="M111.35,358.81c14.72-1.34,27.6,7.95,27.6,7.95s-11,11.47-25.7,12.81-27.6-7.95-27.6-7.95S96.63,360.15,111.35,358.81Z" transform="translate(-58.98 -67.04)" fill="#3f3d56"/><path d="M165.3,361.35c-1.41,14.67,7.85,27.56,7.85,27.56s11.55-10.9,13-25.57-7.85-27.56-7.85-27.56S166.71,346.68,165.3,361.35Z" transform="translate(-58.98 -67.04)" fill="#3f3d56"/><path d="M234.62,451.33c-7.72,12.57-5.07,28.2-5.07,28.2s15.18-4.74,22.9-17.31,5.06-28.2,5.06-28.2S242.34,438.76,234.62,451.33Z" transform="translate(-58.98 -67.04)" fill="#3f3d56"/><path d="M212.22,588l1.13-.76a35.06,35.06,0,0,1-6.22-19.49c0-10.2,5.05-19.63,9.91-28.74.9-1.7,1.79-3.38,2.66-5.07a109.681,109.681,0,0,0,8.62-21.59c7.54-27.91.12-60.84-19.83-88.09-15.83-21.62-39.43-40.52-72.13-57.78l-.64,1.19c32.52,17.17,56,35.94,71.67,57.39C227.1,452,234.44,484.46,227,512a109.069,109.069,0,0,1-8.52,21.32c-.86,1.68-1.76,3.36-2.65,5.05-4.94,9.26-10,18.84-10.07,29.37A36.53,36.53,0,0,0,212.22,588Z" transform="translate(-58.98 -67.04)" fill="#3f3d56"/><ellipse cx="12.9" cy="12.86" rx="12.9" ry="12.86" transform="translate(0 275.47)" fill="#3f3d56"/><path d="M715.08,364.31,549.05,304.84l29.65-82.3,103.37-25.28,62.66,84.75Z" fill="#2f2e41"/><path d="M754,415,629.88,367.86c32.21-43,46.61-73.37,46.62-121.13L800.58,293.9C771.75,334.73,759.7,365.42,754,415Z" transform="translate(-58.98 -67.04)" fill="#f2f2f2"/><path d="M640.46,208.88l64.28,24.43-1.14,2.98-64.28-24.43Z" fill="#3f3d56"/><path d="M635.9,220.8l64.28,24.44-1.14,2.98-64.28-24.44Z" fill="#3f3d56"/><path d="M631.34,232.73l64.28,24.43-1.14,2.98L630.2,235.71Z" fill="#3f3d56"/><path d="M626.78,244.65l64.28,24.44-1.14,2.98-64.28-24.43Z" fill="#3f3d56"/><path d="M622.22,256.58l64.28,24.43L685.36,284l-64.28-24.44Z" fill="#3f3d56"/><path d="M617.66,268.51l64.28,24.43-1.14,2.98-64.28-24.43Z" fill="#3f3d56"/><path d="M613.1,280.43l64.28,24.44-1.14,2.98-64.28-24.44Z" fill="#3f3d56"/><path d="M608.54,292.36l64.29,24.43-1.15,2.98-64.27-24.43Z" fill="#3f3d56"/><path d="M711.25,374.96,545.22,315.5l33.48-92.96,70.11,65.56,95.92-6.09Z" fill="#3f3d56"/><path d="M626.89,345.67,544.1,316.02l20.17-56.01,1.65.59-19.58,54.37,81.14,29.06Z" fill="#39bed5"/><path d="M573.18,277.41l24.28,8.7-3.49,9.68L569.7,287.1Z" fill="#39bed5"/><path d="M323.01,559.73l-129.94-.07,1.02-72.74,64.58,28.94,65.36-27.13Z" fill="#3f3d56"/><rect width="7.58" height="19" transform="matrix(0.014, -1, 1, 0.014, 203.313, 534.044)" fill="#39bed5"/><path d="M324.47,488.63l-65.69,33.39-65.03-33.39V486.7H324.47Z" fill="#39bed5"/><path d="M7.87,0c4.346,0,7.87,9.783,7.87,21.85S12.216,43.7,7.87,43.7,0,33.917,0,21.85,3.524,0,7.87,0Z" transform="translate(658.449 205.129) rotate(-69.2)" fill="#3f3d56"/><path d="M778.89,156.44a33.22,33.22,0,0,0-41.58,21.79c-5.45,17.47,9.4,81.42,9.4,81.42s48.59-44.28,54-61.75a33.11,33.11,0,0,0-21.82-41.46Zm-14.53,46.61a15.68,15.68,0,1,1,11.99-1.068,15.7,15.7,0,0,1-11.99,1.068Z" transform="translate(-58.98 -67.04)" fill="#3f3d56"/></g></svg>