<svg xmlns="http://www.w3.org/2000/svg" xmlns:xlink="http://www.w3.org/1999/xlink" width="1113.771" height="825.71" viewBox="0 0 1113.771 825.71"><defs><linearGradient id="a" x1="-2.455" y1="1" x2="-2.455" gradientUnits="objectBoundingBox"><stop offset="0" stop-color="gray" stop-opacity="0.251"/><stop offset="0.54" stop-color="gray" stop-opacity="0.122"/><stop offset="1" stop-color="gray" stop-opacity="0.102"/></linearGradient></defs><g transform="translate(-626 -181)"><g transform="translate(626 181)"><path d="M695.62,68.31c44.08-17.92,90.65-32.88,138.19-31,69.9,2.75,136.94,44.8,169.85,106.53,27.89,52.3,31.33,113.6,43.34,171.64,14.82,71.52,43.16,139.46,73.44,205.92,16.26,35.7,33.42,72.17,36.08,111.31,3.71,54.32-22.26,108.46-63,144.6s-94.82,55.21-149.11,59.37c-28.89,2.21-59.08.16-84.75-13.29-27.14-14.22-46.94-39.93-74.19-53.95-25.26-13-54.81-14.83-83.17-13.13a372.666,372.666,0,0,0-108.58,23.08c-39.64,14.89-76.5,36.44-116.05,51.54s-83.74,23.51-124.17,10.92c-37.94-11.83-68-40.56-95-69.66a1218.836,1218.836,0,0,1-121.17-153.3C112.92,582.33,90.2,543.75,79.4,501.13c-20.63-81.48,7.77-173.41,70.76-229C202.32,226,272.36,206,340.92,193.82c62.52-11.07,134.81-11.76,192.36-40.62C588.16,125.68,638.1,91.71,695.62,68.31Z" transform="translate(-72.749 -37.15)" fill="#39bed5" opacity="0.1"/><path d="M936.01,576.92l-1.67,1.68-.75-2.89.8-2.85h2.06Z" transform="translate(-756.269 -0.01)" fill="#464a5f"/><path d="M936.01,576.92l-1.67,1.68-.75-2.89.8-2.85h2.06Z" transform="translate(-756.269 -0.01)" opacity="0.1"/><path d="M933.48,576.92l-1.62,1.73,1.62,1.9,1.74-.65.43-.84Z" transform="translate(-753.739 -0.01)" fill="#9c9ca1"/><path d="M933.48,576.92l-1.62,1.73,1.62,1.9,1.74-.65.43-.84Z" transform="translate(-753.739 -0.01)" opacity="0.1"/><path d="M789.1,310.28l182.88,182.88a17.58,17.58,0,0,1,.05,24.81L691.712,800.52a17.58,17.58,0,0,1-24.82.13L481.282,617.7Z" transform="translate(-301.54 -37.15)" fill="#9c9ca1"/><path d="M789.1,310.28l182.88,182.88a17.58,17.58,0,0,1,.05,24.81L691.712,800.52a17.58,17.58,0,0,1-24.82.13L481.282,617.7Z" transform="translate(-301.54 -37.15)" opacity="0.1"/><path d="M789.1,306.65l182.88,182.88a17.58,17.58,0,0,1,.05,24.81L691.712,796.88a17.58,17.58,0,0,1-24.82.14l-185.61-183Z" transform="translate(-301.54 -37.15)" fill="#9c9ca1"/><path d="M980.626,178.1l16.78,127.34L689.586,612.85l-17.68-129.44a18.72,18.72,0,0,1,5.44-15.93l297-291.56a3.72,3.72,0,0,1,6.28,2.18Z" transform="translate(-512.265 -37.15)" fill="#464a5f"/><path d="M980.626,178.1l16.78,127.34L689.586,612.85l-17.68-129.44a18.72,18.72,0,0,1,5.44-15.93l297-291.56a3.72,3.72,0,0,1,6.28,2.18Z" transform="translate(-512.265 -37.15)" opacity="0.1"/><path d="M978.206,179.31l16.78,127.34L687.166,614.06l-17.68-129.44a18.72,18.72,0,0,1,5.44-15.93l297-291.56a3.72,3.72,0,0,1,6.28,2.18Z" transform="translate(-507.425 -37.15)" fill="#464a5f"/><g transform="translate(233.263 326.988)" opacity="0.1"><path d="M675.3,365.17l11.13,11.23a3.53,3.53,0,0,1,0,5l-11.28,11.57a3.54,3.54,0,0,1-5,.1l-11.08-10.46a3.53,3.53,0,0,1-.18-4.95l11.28-12.34a3.53,3.53,0,0,1,5.13-.15Z" transform="translate(-421.82 -364.138)"/><path d="M696.16,385.92l11.09,11.22a3.53,3.53,0,0,1,0,4.95l-11.28,11.57a3.53,3.53,0,0,1-5,.1l-11.08-10.45a3.55,3.55,0,0,1-.18-5L691.03,386a3.53,3.53,0,0,1,5.13-.08Z" transform="translate(-463.422 -364.138)"/><path d="M717.937,407.69l11.09,11.23a3.54,3.54,0,0,1,0,4.95l-11.29,11.57a3.54,3.54,0,0,1-5,.1l-11.08-10.46a3.53,3.53,0,0,1-.18-4.95l11.28-12.34a3.53,3.53,0,0,1,5.18-.1Z" transform="translate(-506.979 -364.138)"/><path d="M739.977,429.72,751.057,441a3.54,3.54,0,0,1,0,4.95l-11.29,11.57a3.54,3.54,0,0,1-5,.1L723.7,447.16a3.52,3.52,0,0,1-.19-4.95l11.34-12.39a3.54,3.54,0,0,1,5.13-.1Z" transform="translate(-551.039 -364.138)"/><path d="M761.982,451.75,773.062,463a3.54,3.54,0,0,1,0,5l-11.29,11.57a3.54,3.54,0,0,1-5,.1L745.7,469.21a3.52,3.52,0,0,1-.19-4.95l11.28-12.34a3.54,3.54,0,0,1,5.19-.17Z" transform="translate(-595.074 -364.138)"/><path d="M782.585,472.37l13.77,13.95a1.66,1.66,0,0,1,0,2.32l-13.87,14.21a1.66,1.66,0,0,1-2.32,0l-13.77-13a1.65,1.65,0,0,1-.08-2.32l13.86-15.16a1.66,1.66,0,0,1,2.41,0Z" transform="translate(-639.097 -364.138)"/><path d="M804.616,494.4l13.77,14a1.65,1.65,0,0,1,0,2.31l-13.87,14.22a1.66,1.66,0,0,1-2.32,0l-13.77-13a1.65,1.65,0,0,1-.08-2.32l13.86-15.16a1.66,1.66,0,0,1,2.41-.05Z" transform="translate(-683.158 -364.138)"/><path d="M824.116,513.9l13.77,14a1.65,1.65,0,0,1,0,2.31l-13.87,14.22a1.66,1.66,0,0,1-2.32,0l-13.77-13a1.65,1.65,0,0,1-.08-2.32L821.716,514a1.66,1.66,0,0,1,2.4-.1Z" transform="translate(-722.158 -364.138)"/><path d="M845.948,535.74l13.77,13.94a1.65,1.65,0,0,1,0,2.32l-13.87,14.21a1.65,1.65,0,0,1-2.32,0l-13.77-13a1.66,1.66,0,0,1-.08-2.32l13.86-15.16a1.66,1.66,0,0,1,2.41.01Z" transform="translate(-765.829 -364.138)"/><path d="M867.1,556.89l13.77,13.94a1.65,1.65,0,0,1,0,2.32L867,587.37a1.66,1.66,0,0,1-2.32,0l-13.77-13a1.66,1.66,0,0,1-.08-2.32l13.91-15.11a1.66,1.66,0,0,1,2.36-.05Z" transform="translate(-808.129 -364.138)"/><path d="M888.217,578l13.79,14a1.65,1.65,0,0,1,0,2.31l-13.87,14.22a1.66,1.66,0,0,1-2.32,0l-13.77-13a1.65,1.65,0,0,1-.08-2.32l13.86-15.16a1.66,1.66,0,0,1,2.39-.05Z" transform="translate(-850.399 -364.138)"/><path d="M909.365,599.19l13.77,13.95a1.66,1.66,0,0,1,0,2.32l-13.83,14.21a1.66,1.66,0,0,1-2.32.05l-13.77-13a1.65,1.65,0,0,1-.08-2.32L907,599.24a1.66,1.66,0,0,1,2.37-.05Z" transform="translate(-892.697 -364.138)"/><path d="M655.294,385.31l11.08,11.22a3.53,3.53,0,0,1,0,5l-11.29,11.57a3.53,3.53,0,0,1-5,.1l-11.07-10.45a3.54,3.54,0,0,1-.19-5l11.35-12.35a3.54,3.54,0,0,1,5.12-.09Z" transform="translate(-381.686 -364.138)"/><path d="M611.207,429.3l11.09,11.22a3.54,3.54,0,0,1,0,5L611.017,457a3.53,3.53,0,0,1-4.95.11l-11.08-10.46a3.52,3.52,0,0,1-.18-4.95l11.28-12.3a3.53,3.53,0,0,1,5.12-.1Z" transform="translate(-293.598 -364.138)"/><path d="M675.995,406.05l11.09,11.22a3.53,3.53,0,0,1,0,5L675.8,433.84a3.54,3.54,0,0,1-5,.11l-11.07-10.51a3.55,3.55,0,0,1-.18-5l11.28-12.33a3.52,3.52,0,0,1,5.16-.06Z" transform="translate(-423.127 -364.138)"/><path d="M697.829,427.83l11.08,11.22a3.53,3.53,0,0,1,0,4.95l-11.29,11.57a3.53,3.53,0,0,1-5,.1l-11.07-10.45a3.54,3.54,0,0,1-.19-5l11.28-12.34a3.54,3.54,0,0,1,5.19-.05Z" transform="translate(-466.731 -364.138)"/><path d="M719.819,449.85l11.08,11.23a3.53,3.53,0,0,1,0,4.95l-11.29,11.57a3.52,3.52,0,0,1-4.95.1l-11.08-10.45a3.54,3.54,0,0,1-.19-5l11.3-12.25a3.55,3.55,0,0,1,5.13-.15Z" transform="translate(-510.751 -364.138)"/><path d="M632.74,449.34l11.09,11.22a3.53,3.53,0,0,1,0,4.95l-11.28,11.57a3.53,3.53,0,0,1-5,.1l-11.08-10.45a3.55,3.55,0,0,1-.18-5l11.28-12.33a3.52,3.52,0,0,1,5.17-.06Z" transform="translate(-336.582 -364.138)"/><path d="M654.514,471.11l11.08,11.23a3.53,3.53,0,0,1,0,5L654.3,498.91a3.53,3.53,0,0,1-5,.1l-11.07-10.45a3.54,3.54,0,0,1-.19-5l11.28-12.34a3.54,3.54,0,0,1,5.19-.11Z" transform="translate(-380.126 -364.138)"/><path d="M676.553,493.14l11.08,11.23a3.53,3.53,0,0,1,0,4.95l-11.29,11.57a3.54,3.54,0,0,1-5,.1l-11.07-10.46a3.52,3.52,0,0,1-.19-4.95l11.28-12.34a3.54,3.54,0,0,1,5.19-.1Z" transform="translate(-424.195 -364.138)"/><path d="M741.9,471.88l11.08,11.23a3.53,3.53,0,0,1,0,4.95l-11.29,11.57a3.53,3.53,0,0,1-5,.1l-11.08-10.45a3.53,3.53,0,0,1-.18-5L736.778,472a3.53,3.53,0,0,1,5.12-.12Z" transform="translate(-554.86 -364.138)"/><path d="M763.887,493.91l11.09,11.23a3.53,3.53,0,0,1,0,4.95l-11.29,11.57a3.53,3.53,0,0,1-5,.1l-11.08-10.46a3.52,3.52,0,0,1-.18-4.95L758.767,494a3.53,3.53,0,0,1,5.12-.09Z" transform="translate(-598.879 -364.138)"/><path d="M784.467,514.53l13.77,14a1.65,1.65,0,0,1,0,2.32L784.357,545a1.65,1.65,0,0,1-2.32,0l-13.77-13a1.66,1.66,0,0,1-.08-2.32l13.86-15.16a1.66,1.66,0,0,1,2.42.01Z" transform="translate(-642.859 -364.138)"/><path d="M803.977,534l13.77,14a1.65,1.65,0,0,1,0,2.32l-13.87,14.21a1.65,1.65,0,0,1-2.32,0l-13.77-13a1.66,1.66,0,0,1-.08-2.32l13.86-15.16a1.66,1.66,0,0,1,2.41-.05Z" transform="translate(-681.889 -364.138)"/><path d="M825.8,555.87l13.78,14a1.65,1.65,0,0,1,0,2.31l-13.86,14.22a1.66,1.66,0,0,1-2.32,0l-13.77-13a1.65,1.65,0,0,1-.09-2.32l13.86-15.16a1.66,1.66,0,0,1,2.4-.05Z" transform="translate(-725.554 -364.138)"/><path d="M846.967,577l13.77,14a1.65,1.65,0,0,1,0,2.32l-13.86,14.21a1.67,1.67,0,0,1-2.33,0l-13.76-13a1.65,1.65,0,0,1-.09-2.32l13.86-15.16a1.66,1.66,0,0,1,2.41-.05Z" transform="translate(-767.869 -364.138)"/><path d="M676.884,448.76,687.974,460a3.53,3.53,0,0,1,0,4.95l-11.29,11.57a3.52,3.52,0,0,1-5,.1L660.6,466.17a3.54,3.54,0,0,1-.18-5l11.34-12.31a3.52,3.52,0,0,1,5.12-.1Z" transform="translate(-424.856 -364.138)"/><path d="M698.91,470.79,710,482a3.53,3.53,0,0,1,0,4.95l-11.29,11.57a3.52,3.52,0,0,1-5,.1l-11.08-10.45a3.55,3.55,0,0,1-.18-5l11.28-12.33a3.52,3.52,0,0,1,5.18-.05Z" transform="translate(-468.912 -364.138)"/><path d="M720.93,492.82,732.02,504a3.53,3.53,0,0,1,0,4.95l-11.28,11.57a3.53,3.53,0,0,1-5,.1l-11.08-10.45a3.55,3.55,0,0,1-.18-5l11.28-12.34a3.53,3.53,0,0,1,5.17-.01Z" transform="translate(-512.962 -364.138)"/><path d="M742.96,514.85l11.09,11.22a3.53,3.53,0,0,1,0,4.95l-11.28,11.57a3.53,3.53,0,0,1-5,.1l-11.08-10.45a3.55,3.55,0,0,1-.18-5l11.28-12.34a3.53,3.53,0,0,1,5.17-.05Z" transform="translate(-557.022 -364.138)"/><path d="M763.531,535.47l13.78,13.94a1.66,1.66,0,0,1,0,2.32l-13.86,14.21a1.65,1.65,0,0,1-2.32,0l-13.77-13a1.65,1.65,0,0,1-.09-2.32l13.86-15.17a1.65,1.65,0,0,1,2.4.02Z" transform="translate(-601.013 -364.138)"/><path d="M783.031,555l13.78,13.94a1.66,1.66,0,0,1,0,2.32l-13.86,14.21a1.65,1.65,0,0,1-2.32,0l-13.77-13a1.65,1.65,0,0,1-.09-2.32L780.621,555a1.65,1.65,0,0,1,2.41,0Z" transform="translate(-640.013 -364.138)"/><path d="M804.881,576.8l13.77,14a1.66,1.66,0,0,1,0,2.32l-13.86,14.21a1.65,1.65,0,0,1-2.32.05l-13.77-13a1.65,1.65,0,0,1-.09-2.32l13.87-15.16a1.66,1.66,0,0,1,2.4-.1Z" transform="translate(-683.693 -364.138)"/><path d="M826.021,598l13.78,13.9a1.66,1.66,0,0,1,0,2.32l-13.86,14.21a1.65,1.65,0,0,1-2.32.05l-13.77-13a1.65,1.65,0,0,1-.09-2.32L823.6,598a1.64,1.64,0,0,1,2.42,0Z" transform="translate(-725.993 -364.138)"/><path d="M868.117,598.17l13.77,14a1.65,1.65,0,0,1,0,2.32l-13.87,14.21a1.65,1.65,0,0,1-2.32.05l-13.77-13a1.66,1.66,0,0,1-.08-2.32l13.86-15.16a1.66,1.66,0,0,1,2.41-.1Z" transform="translate(-810.169 -364.138)"/><path d="M889.218,619.33l13.81,13.94a1.65,1.65,0,0,1,0,2.32l-13.9,14.21a1.65,1.65,0,0,1-2.32.05l-13.77-13a1.66,1.66,0,0,1-.08-2.32l13.86-15.16a1.65,1.65,0,0,1,2.4-.04Z" transform="translate(-852.42 -364.138)"/><path d="M782.905,599.57l13,13.13a2.22,2.22,0,0,1,0,3.11l-13.09,13.42a2.22,2.22,0,0,1-3.11.06l-13-12.23a2.23,2.23,0,0,1-.14-3.06l13.09-14.32a2.23,2.23,0,0,1,3.25-.11Z" transform="translate(-638.957 -364.138)"/><path d="M804.072,620.72l13,13.13a2.22,2.22,0,0,1,0,3.11l-13.09,13.42a2.22,2.22,0,0,1-3.11.06l-13-12.23a2.22,2.22,0,0,1-.12-3.11l13.13-14.32a2.23,2.23,0,0,1,3.19-.06Z" transform="translate(-681.274 -364.138)"/><path d="M825.266,641.87l13,13.13a2.22,2.22,0,0,1,0,3.11l-13.09,13.42a2.22,2.22,0,0,1-3.11.07l-13-12.24a2.21,2.21,0,0,1-.12-3.11l13.09-14.31a2.21,2.21,0,0,1,3.23-.07Z" transform="translate(-723.658 -364.138)"/><path d="M846,662.6l13.77,13.95a1.66,1.66,0,0,1,0,2.32L845.9,693.08a1.65,1.65,0,0,1-2.32,0l-13.77-13a1.65,1.65,0,0,1-.08-2.32l13.86-15.16a1.66,1.66,0,0,1,2.41,0Z" transform="translate(-765.917 -364.138)"/><path d="M654.867,405.94,666.687,418a3.53,3.53,0,0,1,0,5l-33,32.67a3.54,3.54,0,0,1-4.91.06l-12.32-11.59a3.54,3.54,0,0,1-.07-5.09l33.5-33.14A3.53,3.53,0,0,1,654.867,405.94Z" transform="translate(-359.459 -364.138)"/><path d="M868.312,619.28,882.762,634a1.68,1.68,0,0,1,0,2.34l-35.61,35.25a1.65,1.65,0,0,1-2.3,0l-15.06-14.17a1.65,1.65,0,0,1,0-2.38l36.23-35.84A1.66,1.66,0,0,1,868.312,619.28Z" transform="translate(-788.914 -364.138)"/><path d="M760.546,513.82l13.79,13.66a1.64,1.64,0,0,1,0,2.33l-76.79,78.71a1.66,1.66,0,0,1-2.32,0l-15-14.15a1.65,1.65,0,0,1,0-2.37l78-78.21a1.66,1.66,0,0,1,2.32.03Z" transform="translate(-530.938 -364.138)"/></g><path d="M675.323,362.75,686.453,374a3.53,3.53,0,0,1,0,4.95l-11.28,11.57a3.54,3.54,0,0,1-5,.1l-11.08-10.46a3.53,3.53,0,0,1-.18-4.95l11.28-12.34a3.53,3.53,0,0,1,5.13-.12Z" transform="translate(-188.582 -37.15)" fill="#464a5f"/><path d="M696.16,383.5l11.09,11.22a3.53,3.53,0,0,1,0,4.95l-11.28,11.57a3.53,3.53,0,0,1-5,.1l-11.08-10.45a3.55,3.55,0,0,1-.18-5l11.32-12.3a3.53,3.53,0,0,1,5.13-.09Z" transform="translate(-230.158 -37.15)" fill="#464a5f"/><path d="M717.942,405.27l11.09,11.23a3.54,3.54,0,0,1,0,4.95L717.762,433a3.54,3.54,0,0,1-5,.1l-11.08-10.46a3.53,3.53,0,0,1-.18-5l11.28-12.34a3.53,3.53,0,0,1,5.16-.03Z" transform="translate(-273.721 -37.15)" fill="#464a5f"/><path d="M739.956,427.3l11.08,11.22a3.55,3.55,0,0,1,0,5l-11.29,11.57a3.54,3.54,0,0,1-5,.1l-11.07-10.46a3.52,3.52,0,0,1-.19-4.95l11.34-12.38a3.54,3.54,0,0,1,5.13-.1Z" transform="translate(-317.755 -37.15)" fill="#464a5f"/><path d="M762.007,449.33l11.08,11.22a3.54,3.54,0,0,1,0,5L761.8,477.11a3.54,3.54,0,0,1-5,.11l-11.07-10.46a3.52,3.52,0,0,1-.19-5l11.28-12.34a3.54,3.54,0,0,1,5.19-.09Z" transform="translate(-361.835 -37.15)" fill="#464a5f"/><path d="M782.586,470l13.77,13.9a1.65,1.65,0,0,1,0,2.31l-13.87,14.22a1.66,1.66,0,0,1-2.32.05l-13.77-13a1.65,1.65,0,0,1-.08-2.32L780.186,470a1.66,1.66,0,0,1,2.4,0Z" transform="translate(-405.835 -37.15)" fill="#464a5f"/><path d="M804.616,492l13.77,13.95a1.65,1.65,0,0,1,0,2.31l-13.87,14.22a1.66,1.66,0,0,1-2.32,0l-13.77-13a1.65,1.65,0,0,1-.08-2.32L802.216,492a1.66,1.66,0,0,1,2.4,0Z" transform="translate(-449.895 -37.15)" fill="#464a5f"/><path d="M824.106,511.48l13.77,13.95a1.65,1.65,0,0,1,0,2.31L824.016,542a1.66,1.66,0,0,1-2.32,0l-13.77-13a1.65,1.65,0,0,1-.08-2.32l13.86-15.16a1.66,1.66,0,0,1,2.4-.04Z" transform="translate(-488.885 -37.15)" fill="#464a5f"/><path d="M845.948,533.32l13.77,13.94a1.65,1.65,0,0,1,0,2.32l-13.87,14.21a1.65,1.65,0,0,1-2.32.05l-13.77-13a1.66,1.66,0,0,1-.08-2.32l13.86-15.17a1.66,1.66,0,0,1,2.41-.03Z" transform="translate(-532.566 -37.15)" fill="#464a5f"/><path d="M867.087,554.47l13.77,13.94a1.65,1.65,0,0,1,0,2.32L867,585a1.66,1.66,0,0,1-2.32,0l-13.77-13a1.66,1.66,0,0,1-.08-2.32l13.9-15.16a1.66,1.66,0,0,1,2.36-.05Z" transform="translate(-574.856 -37.15)" fill="#464a5f"/><path d="M888.256,575.62l13.77,14a1.65,1.65,0,0,1,0,2.31l-13.87,14.22a1.66,1.66,0,0,1-2.32,0l-13.77-13a1.65,1.65,0,0,1-.08-2.32l13.86-15.16a1.66,1.66,0,0,1,2.41-.05Z" transform="translate(-617.175 -37.15)" fill="#464a5f"/><path d="M909.365,596.77l13.77,14a1.66,1.66,0,0,1,0,2.32l-13.83,14.16a1.66,1.66,0,0,1-2.32,0l-13.77-13a1.65,1.65,0,0,1-.08-2.32L907,596.77a1.66,1.66,0,0,1,2.37,0Z" transform="translate(-659.434 -37.15)" fill="#464a5f"/><path d="M655.319,382.89l11.08,11.22a3.53,3.53,0,0,1,0,4.95l-11.29,11.57a3.53,3.53,0,0,1-5,.1l-11.07-10.45a3.54,3.54,0,0,1-.19-5L650.2,383a3.54,3.54,0,0,1,5.12-.11Z" transform="translate(-148.448 -37.15)" fill="#464a5f"/><path d="M611.233,426.88l11.09,11.22a3.54,3.54,0,0,1,0,5l-11.29,11.56a3.53,3.53,0,0,1-4.95.11L595,444.31a3.54,3.54,0,0,1-.18-5L606.113,427a3.52,3.52,0,0,1,5.12-.12Z" transform="translate(-60.362 -37.15)" fill="#464a5f"/><path d="M676.02,403.63l11.09,11.22a3.53,3.53,0,0,1,0,4.95l-11.28,11.57a3.53,3.53,0,0,1-5,.1L659.76,421a3.55,3.55,0,0,1-.18-5l11.28-12.33a3.52,3.52,0,0,1,5.16-.04Z" transform="translate(-189.888 -37.15)" fill="#464a5f"/><path d="M697.829,425.4l11.08,11.23a3.53,3.53,0,0,1,0,4.95l-11.29,11.57a3.53,3.53,0,0,1-5,.1l-11.07-10.45a3.54,3.54,0,0,1-.19-5l11.34-12.3a3.55,3.55,0,0,1,5.13-.1Z" transform="translate(-233.468 -37.15)" fill="#464a5f"/><path d="M719.819,447.43l11.08,11.23a3.53,3.53,0,0,1,0,4.95l-11.29,11.57a3.53,3.53,0,0,1-4.95.1l-11.08-10.45a3.54,3.54,0,0,1-.19-5l11.28-12.34a3.54,3.54,0,0,1,5.15-.06Z" transform="translate(-277.488 -37.15)" fill="#464a5f"/><path d="M632.74,446.92l11.09,11.22a3.53,3.53,0,0,1,0,4.95l-11.28,11.57a3.53,3.53,0,0,1-5,.1l-11.08-10.45a3.55,3.55,0,0,1-.18-5L627.62,447a3.52,3.52,0,0,1,5.12-.08Z" transform="translate(-103.318 -37.15)" fill="#464a5f"/><path d="M654.539,468.69l11.08,11.23a3.53,3.53,0,0,1,0,4.95l-11.29,11.57a3.54,3.54,0,0,1-5,.1l-11.07-10.45a3.54,3.54,0,0,1-.19-5l11.28-12.34a3.54,3.54,0,0,1,5.19-.06Z" transform="translate(-146.888 -37.15)" fill="#464a5f"/><path d="M676.553,490.72,687.633,502a3.53,3.53,0,0,1,0,4.95l-11.29,11.57a3.54,3.54,0,0,1-5,.1l-11.07-10.46a3.52,3.52,0,0,1-.19-4.95l11.28-12.34a3.54,3.54,0,0,1,5.19-.15Z" transform="translate(-190.931 -37.15)" fill="#464a5f"/><path d="M741.9,469.46l11.08,11.23a3.53,3.53,0,0,1,0,4.95l-11.29,11.57a3.53,3.53,0,0,1-5,.1l-11.08-10.46a3.52,3.52,0,0,1-.18-5l11.28-12.34a3.53,3.53,0,0,1,5.19-.05Z" transform="translate(-321.601 -37.15)" fill="#464a5f"/><path d="M763.887,491.49l11.09,11.23a3.53,3.53,0,0,1,0,4.95l-11.29,11.57a3.53,3.53,0,0,1-5,.1l-11.08-10.46a3.52,3.52,0,0,1-.18-4.95l11.28-12.34a3.53,3.53,0,0,1,5.18-.1Z" transform="translate(-365.616 -37.15)" fill="#464a5f"/><path d="M784.457,512.11l13.77,13.95a1.65,1.65,0,0,1,0,2.32l-13.87,14.21a1.65,1.65,0,0,1-2.32,0l-13.77-13a1.66,1.66,0,0,1-.08-2.32l13.86-15.16a1.66,1.66,0,0,1,2.41,0Z" transform="translate(-409.586 -37.15)" fill="#464a5f"/><path d="M803.977,531.61l13.77,13.95a1.65,1.65,0,0,1,0,2.32l-13.87,14.21a1.65,1.65,0,0,1-2.32,0l-13.77-13a1.66,1.66,0,0,1-.08-2.32l13.86-15.16a1.66,1.66,0,0,1,2.41,0Z" transform="translate(-448.626 -37.15)" fill="#464a5f"/><path d="M825.8,553.45l13.78,13.95a1.65,1.65,0,0,1,0,2.31l-13.86,14.22a1.66,1.66,0,0,1-2.32,0l-13.77-13a1.65,1.65,0,0,1-.09-2.32L823.4,553.5a1.66,1.66,0,0,1,2.4-.05Z" transform="translate(-492.29 -37.15)" fill="#464a5f"/><path d="M846.967,574.6l13.77,13.95a1.65,1.65,0,0,1,0,2.32l-13.86,14.21a1.67,1.67,0,0,1-2.33,0l-13.76-13a1.65,1.65,0,0,1-.09-2.32l13.86-15.16a1.66,1.66,0,0,1,2.41,0Z" transform="translate(-534.605 -37.15)" fill="#464a5f"/><path d="M676.884,446.34l11.09,11.22a3.53,3.53,0,0,1,0,4.95l-11.29,11.57a3.52,3.52,0,0,1-5,.1L660.6,463.73a3.54,3.54,0,0,1-.18-5l11.34-12.29a3.52,3.52,0,0,1,5.12-.1Z" transform="translate(-191.592 -37.15)" fill="#464a5f"/><path d="M698.885,468.37l11.09,11.22a3.53,3.53,0,0,1,0,5l-11.29,11.57a3.52,3.52,0,0,1-5,.1L682.6,485.81a3.55,3.55,0,0,1-.18-5l11.28-12.33a3.52,3.52,0,0,1,5.18-.11Z" transform="translate(-235.623 -37.15)" fill="#464a5f"/><path d="M720.93,490.4l11.09,11.22a3.53,3.53,0,0,1,0,4.95l-11.28,11.57a3.53,3.53,0,0,1-5,.1l-11.08-10.45a3.55,3.55,0,0,1-.18-5l11.28-12.34a3.53,3.53,0,0,1,5.17-.05Z" transform="translate(-279.698 -37.15)" fill="#464a5f"/><path d="M742.935,512.42l11.09,11.23a3.53,3.53,0,0,1,0,5l-11.28,11.57a3.53,3.53,0,0,1-5,.1l-11.08-10.45a3.55,3.55,0,0,1-.18-5l11.28-12.34a3.54,3.54,0,0,1,5.17-.11Z" transform="translate(-323.733 -37.15)" fill="#464a5f"/><path d="M763.532,533.05,777.312,547a1.66,1.66,0,0,1,0,2.32l-13.86,14.21a1.65,1.65,0,0,1-2.32.05l-13.77-13a1.66,1.66,0,0,1-.09-2.33l13.86-15.16a1.65,1.65,0,0,1,2.4-.04Z" transform="translate(-367.75 -37.15)" fill="#464a5f"/><path d="M783.032,552.55l13.78,13.94a1.66,1.66,0,0,1,0,2.32L782.952,583a1.65,1.65,0,0,1-2.32.05l-13.77-13a1.66,1.66,0,0,1-.09-2.33l13.85-15.13a1.65,1.65,0,0,1,2.41-.04Z" transform="translate(-406.75 -37.15)" fill="#464a5f"/><path d="M804.881,574.38l13.77,14a1.66,1.66,0,0,1,0,2.32l-13.86,14.21a1.65,1.65,0,0,1-2.32,0l-13.77-13a1.65,1.65,0,0,1-.09-2.32l13.87-15.16a1.66,1.66,0,0,1,2.4-.05Z" transform="translate(-450.429 -37.15)" fill="#464a5f"/><path d="M826.021,595.54l13.78,13.94a1.66,1.66,0,0,1,0,2.32L825.941,626a1.65,1.65,0,0,1-2.32,0l-13.77-13a1.65,1.65,0,0,1-.09-2.32l13.84-15.1a1.64,1.64,0,0,1,2.42-.04Z" transform="translate(-492.729 -37.15)" fill="#464a5f"/><path d="M868.117,595.75l13.77,14a1.65,1.65,0,0,1,0,2.32l-13.87,14.21a1.65,1.65,0,0,1-2.32,0l-13.77-13a1.66,1.66,0,0,1-.08-2.32l13.87-15.16a1.66,1.66,0,0,1,2.4-.05Z" transform="translate(-576.906 -37.15)" fill="#464a5f"/><path d="M889.267,616.9l13.77,14a1.65,1.65,0,0,1,0,2.32l-13.87,14.21a1.65,1.65,0,0,1-2.32,0l-13.77-13a1.66,1.66,0,0,1-.08-2.32L886.867,617a1.66,1.66,0,0,1,2.4-.1Z" transform="translate(-619.206 -37.15)" fill="#464a5f"/><path d="M782.918,597.15l13,13.13a2.22,2.22,0,0,1,0,3.11l-13.09,13.42a2.22,2.22,0,0,1-3.11.06l-13-12.23a2.23,2.23,0,0,1-.12-3.11l13.09-14.32a2.23,2.23,0,0,1,3.23-.06Z" transform="translate(-405.707 -37.15)" fill="#464a5f"/><path d="M804.062,618.3l13,13.13a2.22,2.22,0,0,1,0,3.11L803.942,648a2.22,2.22,0,0,1-3.07,0l-13-12.23a2.22,2.22,0,0,1-.12-3.11l13.12-14.3a2.23,2.23,0,0,1,3.19-.06Z" transform="translate(-448.001 -37.15)" fill="#464a5f"/><path d="M825.266,639.45l13,13.13a2.22,2.22,0,0,1,0,3.11l-13.09,13.42a2.21,2.21,0,0,1-3.11.06l-13-12.23a2.21,2.21,0,0,1-.12-3.11l13.09-14.32a2.22,2.22,0,0,1,3.23-.06Z" transform="translate(-490.395 -37.15)" fill="#464a5f"/><path d="M846,660.18l13.77,14a1.66,1.66,0,0,1,0,2.32L845.9,690.71a1.66,1.66,0,0,1-2.32.05l-13.77-13a1.65,1.65,0,0,1-.08-2.32l13.86-15.16a1.66,1.66,0,0,1,2.41-.1Z" transform="translate(-532.654 -37.15)" fill="#464a5f"/><path d="M654.867,403.52l11.82,12.07a3.53,3.53,0,0,1,0,5l-33,32.67a3.54,3.54,0,0,1-4.91.06l-12.32-11.59a3.54,3.54,0,0,1-.07-5.09l33.5-33.14A3.53,3.53,0,0,1,654.867,403.52Z" transform="translate(-126.196 -37.15)" fill="#464a5f"/><path d="M868.313,616.86l14.45,14.75a1.68,1.68,0,0,1,0,2.34l-35.61,35.25a1.65,1.65,0,0,1-2.3,0l-15.06-14.17a1.65,1.65,0,0,1,0-2.38l36.23-35.84a1.65,1.65,0,0,1,2.29.05Z" transform="translate(-555.651 -37.15)" fill="#464a5f"/><path d="M760.546,511.4l13.79,13.66a1.64,1.64,0,0,1,0,2.33l-76.79,78.71a1.66,1.66,0,0,1-2.32,0l-15-14.15a1.65,1.65,0,0,1,0-2.37l78-78.21A1.66,1.66,0,0,1,760.546,511.4Z" transform="translate(-297.675 -37.15)" fill="#464a5f"/><path d="M705.83,521l60.63,60.23a9,9,0,0,1,.1,12.66L654.42,709.05a9,9,0,0,1-12.76.14l-62.43-61.41a9,9,0,0,1-.05-12.77L693.12,521A9,9,0,0,1,705.83,521Z" transform="translate(-188.788 -37.15)" opacity="0.1"/><path d="M705.83,518.53l60.63,60.28a9,9,0,0,1,.1,12.66L654.42,706.63a9,9,0,0,1-12.76.14l-62.43-61.41a9,9,0,0,1-.05-12.77l113.94-114a9,9,0,0,1,12.71-.06Z" transform="translate(-188.788 -37.15)" fill="#939498"/><path d="M966.44,202.46l15.35,107.32L697.37,593.29,682.89,486.91a18.8,18.8,0,0,1,5.35-15.83L960.13,200.34a3.72,3.72,0,0,1,6.31,2.12Z" transform="translate(-507.639 -37.15)" fill="#39bed5"/><ellipse cx="23.11" cy="3.17" rx="23.11" ry="3.17" transform="translate(795.571 679.18)" fill="#39bed5" opacity="0.1"/><ellipse cx="23.11" cy="3.17" rx="23.11" ry="3.17" transform="translate(884.112 688.16)" fill="#39bed5" opacity="0.1"/><ellipse cx="23.11" cy="3.17" rx="23.11" ry="3.17" transform="translate(988.391 676.01)" fill="#39bed5" opacity="0.1"/><ellipse cx="16.43" cy="2.26" rx="16.43" ry="2.26" transform="translate(855.352 714.63)" fill="#39bed5" opacity="0.1"/><ellipse cx="16.43" cy="2.26" rx="16.43" ry="2.26" transform="translate(947.242 712.37)" fill="#39bed5" opacity="0.1"/><path d="M163.758,727.77s-32.41-106.26,5.08-148.77c28-31.84,59.87-28,74.13-24.09a26.34,26.34,0,0,1,17,14.12c5,10.76,4.08,28.21-31.1,48.58-58.92,34.11-62.58,80.9-62.58,80.9Z" transform="translate(743.953 -37.15)" fill="#39bed5"/><path d="M252.269,569.93s-95.56,29.87-74.14,157.84" transform="translate(729.602 -37.15)" fill="none" stroke="#565987" stroke-miterlimit="10" stroke-width="1"/><path d="M221.02,580.64s13.15,8.86,9,22.19" transform="translate(705.021 -37.15)" fill="none" stroke="#565987" stroke-miterlimit="10" stroke-width="1"/><path d="M202.44,588.53s-8-8.18-17.83-3.67" transform="translate(769.821 -37.15)" fill="none" stroke="#565987" stroke-miterlimit="10" stroke-width="1"/><path d="M240.16,629.68s-14.12-7.17-17.78,1.81" transform="translate(694.331 -37.15)" fill="none" stroke="#565987" stroke-miterlimit="10" stroke-width="1"/><path d="M246.53,644.62s10.61-.84,10.8,4.23" transform="translate(653.011 -37.15)" fill="none" stroke="#565987" stroke-miterlimit="10" stroke-width="1"/><path d="M193.194,728.62s38-77.23,48.4-75.54c4.95.8,7.23,5.67,8.26,10.57a31.16,31.16,0,0,1-2.06,18.8C242.4,694.81,227.934,718.28,193.194,728.62Z" transform="translate(713.208 -37.15)" fill="#39bed5"/><path d="M249.9,667.73s-39.84,57.79-47.54,60.32" transform="translate(704.611 -37.15)" fill="none" stroke="#565987" stroke-miterlimit="10" stroke-width="1"/><line x1="9.3" transform="translate(948.881 639.6)" fill="none" stroke="#565987" stroke-miterlimit="10" stroke-width="1"/><line x1="14.58" y2="0.62" transform="translate(932.461 660.74)" fill="none" stroke="#565987" stroke-miterlimit="10" stroke-width="1"/><line x2="1.58" y2="7.59" transform="translate(938.172 643.83)" fill="none" stroke="#565987" stroke-miterlimit="10" stroke-width="1"/><line x2="0.29" y2="6.9" transform="translate(922.661 666.94)" fill="none" stroke="#565987" stroke-miterlimit="10" stroke-width="1"/><path d="M306.616,728.62s-38-77.23-48.39-75.54c-5,.8-7.24,5.67-8.27,10.57a31.08,31.08,0,0,0,2.07,18.8C257.406,694.81,271.876,718.28,306.616,728.62Z" transform="translate(600.915 -37.15)" fill="#39bed5"/><path d="M249.9,667.73s39.85,57.79,47.55,60.32" transform="translate(609.521 -37.15)" fill="none" stroke="#565987" stroke-miterlimit="10" stroke-width="1"/><line x2="9.3" transform="translate(855.761 639.6)" fill="none" stroke="#565987" stroke-miterlimit="10" stroke-width="1"/><line x2="14.58" y2="0.62" transform="translate(866.901 660.74)" fill="none" stroke="#565987" stroke-miterlimit="10" stroke-width="1"/><line x1="1.58" y2="7.59" transform="translate(874.191 643.83)" fill="none" stroke="#565987" stroke-miterlimit="10" stroke-width="1"/><line x1="0.28" y2="6.9" transform="translate(890.991 666.94)" fill="none" stroke="#565987" stroke-miterlimit="10" stroke-width="1"/><path d="M202.888,746.65a6.55,6.55,0,0,0,2.16-3.26,2.9,2.9,0,0,0-1.51-3.32c-1.39-.53-2.87.43-4,1.4s-2.42,2.08-3.89,1.88a5.9,5.9,0,0,0,1.83-5.53,2.25,2.25,0,0,0-.51-1.13c-.77-.82-2.16-.47-3.08.18-2.94,2.06-3.75,6-3.77,9.63a18.14,18.14,0,0,1-.05-4,4.09,4.09,0,0,0-1.49-3.51,4.549,4.549,0,0,0-2.27-.53,4.68,4.68,0,0,0-3.69,1c-1.12,1.2-.83,3.2.15,4.52a14.22,14.22,0,0,0,3.81,3.06,8.38,8.38,0,0,1,2.73,2.6,2.77,2.77,0,0,1,.2.46h8.26a23.054,23.054,0,0,0,5.12-3.45Z" transform="translate(769.833 -37.15)" fill="#39bed5"/><path d="M347.531,715.55a6.61,6.61,0,0,0,2.17-3.26,2.91,2.91,0,0,0-1.51-3.32c-1.39-.53-2.87.43-4,1.4s-2.41,2.08-3.88,1.87a5.92,5.92,0,0,0,1.83-5.53,2.35,2.35,0,0,0-.51-1.12c-.77-.83-2.16-.47-3.09.18-2.93,2.06-3.75,6-3.76,9.62a18.06,18.06,0,0,1-.06-4,4,4,0,0,0-1.49-3.51,4.4,4.4,0,0,0-2.27-.53,4.7,4.7,0,0,0-3.68,1c-1.12,1.2-.83,3.21.14,4.53a14.231,14.231,0,0,0,3.82,3,8.659,8.659,0,0,1,2.72,2.6,2.219,2.219,0,0,1,.2.47h8.27a23,23,0,0,0,5.1-3.4Z" transform="translate(480.521 -37.15)" fill="#39bed5"/><path d="M299.328,746.65a6.549,6.549,0,0,0,2.16-3.26,2.9,2.9,0,0,0-1.51-3.32c-1.39-.53-2.87.43-4,1.4s-2.42,2.08-3.89,1.88a5.9,5.9,0,0,0,1.83-5.53,2.249,2.249,0,0,0-.51-1.13c-.77-.82-2.16-.47-3.08.18-2.93,2.06-3.75,6-3.77,9.63a18.139,18.139,0,0,1-.05-4,4.09,4.09,0,0,0-1.48-3.5,4.549,4.549,0,0,0-2.27-.53,4.68,4.68,0,0,0-3.69,1c-1.12,1.2-.83,3.2.15,4.52a14.22,14.22,0,0,0,3.81,3.06,8.38,8.38,0,0,1,2.73,2.6,2.765,2.765,0,0,1,.2.46h8.26a23.05,23.05,0,0,0,5.11-3.46Z" transform="translate(576.943 -37.15)" fill="#39bed5"/><path d="M145.438,683.78s3.1,4.05-1.43,10.16-8.26,11.28-6.75,15.09c0,0,6.83-11.36,12.39-11.51S151.558,690.61,145.438,683.78Z" transform="translate(867.563 -37.15)" fill="#39bed5"/><path d="M145.257,683.78a5.1,5.1,0,0,1,.63,1.27c5.43,6.37,8.32,12.32,3.1,12.47-4.85.13-10.68,8.82-12.07,11a4.166,4.166,0,0,0,.16.5s6.83-11.36,12.39-11.51S151.377,690.61,145.257,683.78Z" transform="translate(867.744 -37.15)" opacity="0.1"/><path d="M138.83,688.94c0,1.43-.16,2.58-.36,2.58s-.36-1.15-.36-2.58.2-.75.4-.75S138.83,687.51,138.83,688.94Z" transform="translate(879.931 -37.15)" fill="#ffd037"/><path d="M137.817,690.64c-1.25.68-2.34,1.1-2.43.92s.84-.86,2.09-1.55.76-.18.85,0S139.067,690,137.817,690.64Z" transform="translate(882.914 -37.15)" fill="#ffd037"/><path d="M158.66,683.78s-3.09,4.05,1.43,10.16,8.26,11.28,6.75,15.09c0,0-6.83-11.36-12.39-11.51S152.55,690.61,158.66,683.78Z" transform="translate(837.982 -37.15)" fill="#39bed5"/><path d="M158.83,683.78a5.1,5.1,0,0,0-.63,1.27c-5.42,6.37-8.31,12.32-3.1,12.47,4.86.13,10.68,8.82,12.08,11a4.2,4.2,0,0,1-.17.5s-6.83-11.36-12.39-11.51S152.72,690.61,158.83,683.78Z" transform="translate(837.811 -37.15)" opacity="0.1"/><path d="M165.29,688.94c0,1.43.16,2.58.35,2.58s.36-1.15.36-2.58-.2-.75-.4-.75S165.29,687.51,165.29,688.94Z" transform="translate(825.581 -37.15)" fill="#ffd037"/><path d="M166.3,690.64c1.25.68,2.34,1.1,2.44.92s-.85-.86-2.1-1.55-.76-.18-.85,0S165.086,690,166.3,690.64Z" transform="translate(822.576 -37.15)" fill="#ffd037"/><path d="M132.748,708.5s8.66-.27,11.27-2.12,13.32-4.08,14-1.1,13,14.82,3.23,14.9-22.71-1.52-25.32-3.11S132.748,708.5,132.748,708.5Z" transform="translate(859.123 -37.15)" fill="#a8a8a8"/><path d="M161.428,719.14c-9.78.08-22.72-1.52-25.32-3.11-2-1.21-2.77-5.54-3-7.54h-.33s.55,7,3.15,8.57,15.55,3.19,25.32,3.11c2.82,0,3.8-1,3.75-2.51C164.6,718.56,163.528,719.12,161.428,719.14Z" transform="translate(859.093 -37.15)" opacity="0.2"/><path d="M407.753,371.22c.16,4.2-3.44,9.78-3.44,9.78-1.1,2.65-14.59,14.93-14.59,14.93l-10,6.68a55.993,55.993,0,0,0,6.34,4.05c4.87,2.49,7.53,10.73,7.53,10.73s7.38,17.73-7.53,20.22l-.28.05-1.34,1.45c-3.3,3.56-7.33,7.81-8.73,8.76-2.51,1.71-10.2,14.62-10.2,14.62s-8.15,13.38-19,14-10.82-11.82-10-12.6a5,5,0,0,0,.67-1.7c-2.59,4.17-6.12,9.65-7.26,10.41-1.88,1.24-8,11-8,11s-7.69,17.57-8.94,19.44-3.45,11.2-3.45,11.2-4.4,12.9-6.44,14.62-3.13,7.93-3.13,7.93-6.43,9.33-7.53,10.88a66.165,66.165,0,0,0-3.45,7s-3.45,5.6-3.45,7.78-7.22,5.9-7.22,5.9-5.18,6.07-8.16,7.16-5.8,8.24-6.27,7.77a1.87,1.87,0,0,0-.89-.18l-1.22,1.22c-4.76,4.74-14.27,14.19-16.71,16.38-3.3,3-10.83,3.42-17.1,2.18-3.22-.64-7.14-3.69-10.19-6.51a7,7,0,0,1-.12-10.11c3-2.89,6.47-6.06,8-6.55,2.82-.94,10.82-6.53,14.58-11.2,2-2.43,5.51-4.74,8.46-6.39l.36-.21a31.207,31.207,0,0,0,.91-5.22s-5.18-11.66-2.35-12.28,13.49-19.13,13.49-19.13c.15-14,13-25.82,13-25.82s6.43-15.24,8.31-18.5a5,5,0,0,0,0-5.6s3.61-2.8,4.23-4.2,3.61-12,3.61-12,3.61-6.38,3.77-9.33,7.19-11.18,7.19-11.18,2.85-13.86,6-16.35c.61-.48.52-2.31,0-4.94l-.15-.16-.48-.47-.14-.14a51.169,51.169,0,0,1-4.06-4.51l-.06-.08c-.2-.25-.39-.49-.57-.74-4.55-6.22-7.37-21-7.37-21s-.9-.42-2.07-1.06a19.74,19.74,0,0,1-4.52-3.11,1,1,0,0,1-.16-.24.2.2,0,0,1,0-.08,1.536,1.536,0,0,1-.08-.19.52.52,0,0,1,0-.11,1.431,1.431,0,0,1,0-.22s0-.07,0-.11v-.36a1.128,1.128,0,0,1,.05-.4.427.427,0,0,0,0-.05,1.76,1.76,0,0,1,.08-.37v-.12a1.182,1.182,0,0,1,.1-.34.928.928,0,0,1,0-.13l.12-.37a.361.361,0,0,0,0-.09c.19-.5.42-1,.68-1.54h0l.27-.51h0a27.19,27.19,0,0,1,1.54-2.63l.08-.12c-1.1-3.1-3.23-8.56-5.21-10.52-2.82-2.8,1.57-17.73,1.57-17.73s.94-10.57,2.2-13.68,0-3.56,1-6.22c1.21-3,2.09-2.8.53-9.64-.59-2.58-1.5-5.42-2.32-8.07l-1,.92c-5.8,5.47-14.91,12.59-14.91,12.59s-17.88,16.17-19.45,16.64-6.28,16.33-6.28,16.33,1.1,26.28-13.33,27.37c-6.13.46-8.73-4.28-9.67-9.87a29.78,29.78,0,0,1,7.07-24.41l8.64-9.82L247,328.32a139.342,139.342,0,0,0,12.31-24.44,68.089,68.089,0,0,1,15.08-22.29l.62-.61-.8-.74s1.26-10.26,2.2-11.5,4.39-8.4,4.39-10,2.2-1.86,3.45-3.73c0,0,2.2-4.35,4.24-5a3,3,0,0,0,1-.64,22.52,22.52,0,0,1,12.82-5.55l1.25-.12a70.008,70.008,0,0,1,8.34.12h.07c2.13-.64,3.74-2.3,5.39-3.78a42.391,42.391,0,0,1,8.77-6.05c3.25-1.69,6.93-3,10.56-2.38,2.84.46,5.38,2,8.15,2.81,3.94,1.11,8.78.88,11.26,4.11,1.19,1.54,1.53,3.59,2.64,5.18,1.58,2.26,4.48,3.31,6.11,5.54a8.5,8.5,0,0,1,1.41,5.52,15.34,15.34,0,0,1-.56,4.67,24.339,24.339,0,0,0-.91,4,5,5,0,0,0,.11.66c.22,1,.73,1.84.93,2.81a5.072,5.072,0,0,1,.05,1.6c.3,2.39-1.24,4.66-2.28,6.88a18.409,18.409,0,0,0-1.57,5.48,51.779,51.779,0,0,1,7.59,2.91c3.27,1.58,6.56,3.72,8.44,6.46a42.75,42.75,0,0,0,11.3,10.91,88.868,88.868,0,0,1,3.45,10.24c.94,4,1.88,10.57,4.7,14s4.12,13.61,4.12,13.61,3.77,6.06,3.77,7.31.47,7,0,8.7a5.091,5.091,0,0,1-1.09,1.42l.28,1C405.893,362,407.653,368.59,407.753,371.22Zm-88.44-70.05a9.726,9.726,0,0,0,.28,1c0-.32-.05-.63-.07-.95Zm35.74,132.92.5-.46.24-.22a2.068,2.068,0,0,0-.09-.38Zm26-63.65-.2-.37-.74-1.34-6-4.9-.77.7s.63,6.53,2.19,6.22c.36-.07.52,1.43.56,3.78,2.83-2.42,4.99-4.09,4.99-4.09Z" transform="translate(533.558 -37.15)" fill="url(#a)"/><path d="M338.31,249.31s-18.67-1.68-23.11-1.22l-1.21.11a21.88,21.88,0,0,0-12.45,5.53,3,3,0,0,1-1,.63c-2,.61-4.13,4.9-4.13,4.9s4.74,37.49,4.74,37.95,9.8,17.44,9.8,17.44l9.49,3.68,16.37,2.31.46-7.06s-7.88-4.32-7-13.25S338.31,249.31,338.31,249.31Z" transform="translate(522.151 -37.15)" fill="#464353"/><path d="M258.37,293.84s4,18.06,0,23.87,39.48-9.48,39.48-9.48l8-14.39s-3-2.13-6.38-4.88c-4.76-3.83-10.46-8.85-10.46-11C288.96,274.25,258.37,293.84,258.37,293.84Z" transform="translate(592.911 -37.15)" fill="#ecb4b6"/><path d="M258.37,293.84s4,18.06,0,23.87,39.48-9.48,39.48-9.48l8-14.39s-3-2.13-6.38-4.88c-4.76-3.83-10.46-8.85-10.46-11C288.96,274.25,258.37,293.84,258.37,293.84Z" transform="translate(592.911 -37.15)" opacity="0.1"/><ellipse cx="26.63" cy="26.63" rx="26.63" ry="26.63" transform="translate(833.831 215.4)" opacity="0.1"/><ellipse cx="26.63" cy="26.63" rx="26.63" ry="26.63" transform="translate(833.831 214.17)" fill="#ecb4b6"/><path d="M397.887,311c-.1,1-2,3.07-4.58,5.52-5.66,5.38-14.55,12.39-14.55,12.39s-17.45,15.91-19,16.37-6.12,16.07-6.12,16.07,1.07,25.86-13,26.93c-6,.45-8.52-4.2-9.44-9.71a29.49,29.49,0,0,1,6.89-24l8.36-9.73,7.5-13.47a136.829,136.829,0,0,0,12.09-24,66.93,66.93,0,0,1,14.69-22c1.57-1.56,2.58-2.39,2.58-2.39l7,2.14S398.187,307.92,397.887,311Z" transform="translate(428.144 -37.15)" fill="#ecb4b6"/><path d="M405.4,580.63l-2.68,2.69c-4.64,4.67-13.92,14-16.3,16.12-3.21,2.91-10.56,3.37-16.68,2.14-3.14-.62-7-3.63-9.94-6.4a6.88,6.88,0,0,1-.11-9.95c2.9-2.84,6.3-6,7.76-6.45,2.75-.92,10.56-6.42,14.23-11,1.91-2.39,5.37-4.66,8.24-6.29,2.64-1.49,4.77-2.43,4.77-2.43Z" transform="translate(393.848 -37.15)" fill="#c17174"/><path d="M401.563,580.63s-.89.91-2.27,2.29c-3.95,4-11.84,11.88-13.87,13.71-2.73,2.47-9,2.86-14.18,1.82-2.34-.47-5.13-2.48-7.49-4.56a6.89,6.89,0,0,1-.25-10.14c2.26-2.17,4.68-4.32,5.79-4.69,2.34-.78,9-5.47,12.1-9.37a25.691,25.691,0,0,1,7-5.35c2.24-1.27,4.05-2.07,4.05-2.07Z" transform="translate(393.909 -37.15)" opacity="0.1"/><path d="M287.708,435.24s-2.1,2.37-4.65,5.15c-3.21,3.51-7.15,7.69-8.51,8.62-2.45,1.69-9.95,14.39-9.95,14.39s-8,13.16-18.52,13.77-10.56-11.63-9.79-12.39,1.83-7.66,3.36-12.71c1.16-3.82,10.65-12.9,15.19-17.09,1.46-1.35,2.41-2.19,2.41-2.19Z" transform="translate(633.163 -37.15)" fill="#c17174"/><path d="M285.392,437s-1.9,2.16-4.23,4.7c-2.93,3.2-6.52,7-7.76,7.86-2.24,1.54-9.07,13.12-9.07,13.12s-7.26,12-16.89,12.55-9.62-10.6-8.93-11.3,1.68-7,3.07-11.58c1.06-3.48,9.71-11.76,13.85-15.58,1.33-1.23,2.2-2,2.2-2Z" transform="translate(633.23 -37.15)" opacity="0.1"/><path d="M268.87,435.24s-2.1,2.37-4.65,5.15c-13.44,2-19.69-.25-19.69-.25s-6.27-2.76-7.65-2.91c-.35,0-.6-.91-.88-2.25,1.46-1.35,2.41-2.19,2.41-2.19Z" transform="translate(652.001 -37.15)" opacity="0.1"/><path d="M268.761,399.13s8.42,6.87,13.19,9.33,7.32,10.54,7.32,10.54,7.19,17.45-7.34,19.89-21.28,0-21.28,0-6.27-2.75-7.65-2.9-1.37-13.32-6.42-17.3-16.68-13-16.68-13Z" transform="translate(635.92 -37.15)" fill="#5e5a6b"/><path d="M268.761,399.13s8.42,6.87,13.19,9.33,7.32,10.54,7.32,10.54,7.19,17.45-7.34,19.89-21.28,0-21.28,0-6.27-2.75-7.65-2.9-1.37-13.32-6.42-17.3-16.68-13-16.68-13Z" transform="translate(635.92 -37.15)" opacity="0.1"/><path d="M312.7,378.16s-6,8.17-4.14,10.13,6.42,4.1,6.42,4.1,2.76,14.54,7.2,20.66,13.15,12.86,13.15,12.86l-6.11-34.13Z" transform="translate(513.344 -37.15)" fill="#5e5a6b"/><path d="M335.323,425.91a101,101,0,0,1-7.82-6.86,49.006,49.006,0,0,1-5.32-6c-4.44-6.12-7.2-20.66-7.2-20.66s-4.59-2.14-6.42-4.1c-1.12-1.19.65-4.66,2.21-7.21,1-1.66,1.92-2.92,1.92-2.92l8.67,7.14,7.86,6.48,2.31,13.22Z" transform="translate(513.339 -37.15)" opacity="0.1"/><path d="M375.126,580.63l-2.68,2.69c-1.69,0-4.21.21-4.21.21s-12.39-14.85-10.4-17.45a12.68,12.68,0,0,0,1.81-4.61c2.64-1.49,4.77-2.43,4.77-2.43Z" transform="translate(424.125 -37.15)" opacity="0.1"/><path d="M374.91,423.92c0,2.6-20.81,34.43-20.81,34.43s-8.11,13.77-9.95,15-7.8,10.86-7.8,10.86-7.5,17.29-8.73,19.13-3.36,11-3.36,11-4.29,12.7-6.28,14.38-3.06,7.81-3.06,7.81-6.27,9.18-7.34,10.71a65.809,65.809,0,0,0-3.37,6.88s-3.37,5.51-3.37,7.66-7,5.81-7,5.81-5,6-7.95,7-5.67,8.11-6.12,7.65-5.67,0-5.67,0-12.39-14.84-10.4-17.44,2.45-8.73,2.45-8.73-5-11.47-2.3-12.08,13.11-18.77,13.11-18.77c.15-13.77,12.7-25.4,12.7-25.4s6.28-15,8.11-18.21a4.94,4.94,0,0,0,0-5.51s3.52-2.75,4.13-4.13,3.52-11.78,3.52-11.78,3.52-6.28,3.68-9.19,7-11,7-11,2.78-13.63,5.84-16.08c.6-.48.5-2.27,0-4.87-1.41-6.85-5.9-19.23-9-27.34-1.77-4.64-3.08-7.89-3.08-7.89l5.92,1.48,50.4,12.6s2.73,7.33,5.13,14.24C373.22,417.58,374.91,422.77,374.91,423.92Z" transform="translate(518.911 -37.15)" fill="#5e5a6b"/><path d="M356.348,549.25s-15.76-6.12-8,1.68,22.64,7.35,22.64,7.35Z" transform="translate(439.683 -37.15)" opacity="0.1"/><path d="M326.5,518s8.87,4.9,7.19,9.64S326.5,518,326.5,518Z" transform="translate(496.473 -37.15)" opacity="0.1"/><path d="M314.7,480.08a9.28,9.28,0,0,0,8.73,4.74C329.815,484.67,314.7,480.08,314.7,480.08Z" transform="translate(517.176 -37.15)" opacity="0.1"/><path d="M241.78,412s-3.37,10.41,0,11.17S241.78,412,241.78,412Z" transform="translate(673.311 -37.15)" opacity="0.1"/><path d="M347.952,311c-.1,1-2,3.07-4.58,5.52-1.46-4.7-2.82-9-2-10.42,1.22-2.14-3.56-6.73-2.7-9.79.66-2.34-5.1-8.27-7.84-10.92,1.57-1.56,2.58-2.39,2.58-2.39l7,2.14S348.252,307.92,347.952,311Z" transform="translate(478.08 -37.15)" opacity="0.1"/><path d="M332.81,412.14c-5.81-.32-19.36-4.52-19.36-4.52s-15.71-.52-26-2.62c-5-1-8.64-2.43-8.64-4.32,0-2.53-2.07-5.92-4.42-9a71.684,71.684,0,0,0-5.14-5.83,9.29,9.29,0,0,1-2.13-3.45c-.14-.41-.31-.87-.48-1.35,1-1.66,1.92-2.92,1.92-2.92l8.67,7.14,50.4,12.6S330.45,405.23,332.81,412.14Z" transform="translate(557.421 -37.15)" opacity="0.1"/><path d="M322.11,402.19s-11.32,6.73-14.69,7.95S286,405.78,286,405.78s-34.59-1.14-34.59-7c0-4.49-6.56-11.71-9.56-14.77a9.25,9.25,0,0,1-2.13-3.46c-1.05-3-3.17-8.57-5.14-10.54-2.76-2.75,1.53-17.44,1.53-17.44s.92-10.41,2.14-13.47,0-3.51,1-6.12c1.18-2.93,2-2.76.51-9.49s-5.2-15.3-4-17.45-3.56-6.73-2.7-9.79-9.23-12.24-9.23-12.24S225.09,274,226,272.72s4.28-8.26,4.28-9.79,2.15-1.84,3.37-3.67S249,306.7,249,306.7l20.59,4.64,1.14.25s11.71.55,19.31-3.67c0,0,13.13-2.14,17.42-23.87a50.31,50.31,0,0,1,9.52,3.44c3.19,1.55,6.39,3.66,8.23,6.35a41.66,41.66,0,0,0,11,10.74,89.137,89.137,0,0,1,3.37,10.07c.91,4,1.83,10.41,4.59,13.78s4,13.46,4,13.46L320.58,367s.61,6.43,2.14,6.12S322.11,402.19,322.11,402.19Z" transform="translate(584.871 -37.15)" fill="#464353"/><path d="M304.88,288.71,290.16,319.4s-6.12,4-8.27,1.83-10.25-2.14-10.25-2.14l-1.07,2.14-15.51-3.66,2.43-5,1.14.26s11.71.55,19.31-3.67c0,0,13.13-2.15,17.42-23.88a50.312,50.312,0,0,1,9.52,3.43Z" transform="translate(596.932 -37.15)" opacity="0.1"/><path d="M304.88,287.49l-14.72,30.68s-6.12,4-8.27,1.84-10.25-2.14-10.25-2.14l-1.07,2.14-15.51-3.67,2.43-5,1.14.25s11.71.55,19.31-3.67c0,0,13.13-2.14,17.42-23.87A50.311,50.311,0,0,1,304.88,287.49Z" transform="translate(596.931 -37.15)" fill="#464353"/><path d="M296.522,376.78s-32.48,10.22-34.89,11.51S296.372,380.3,296.522,376.78Z" transform="translate(598.829 -37.15)" opacity="0.1"/><path d="M269.98,392.39s8.54,4.75,11.6,3.06S269.98,392.39,269.98,392.39Z" transform="translate(604.892 -37.15)" opacity="0.1"/><path d="M307.6,335.63s-8.22,43.91,3.93,56.76Z" transform="translate(540.464 -37.15)" opacity="0.1"/><path d="M260.736,269.52a9.2,9.2,0,0,1-.33-12.14c1.06-1.2,2.45-2.11,3.32-3.46a14.871,14.871,0,0,1,1.62-2.66c1.58-1.62,4.24-1.19,6.41-1.85s3.64-2.26,5.25-3.71a41.25,41.25,0,0,1,8.55-6c3.18-1.66,6.77-2.92,10.31-2.34,2.77.46,5.24,2,7.95,2.77,3.84,1.09,8.57.87,11,4.05,1.15,1.51,1.48,3.52,2.57,5.09,1.54,2.22,4.37,3.26,6,5.45,1.79,2.47,1.6,5.86.83,8.81-.51,1.91-1.23,3.87-.78,5.79.22.94.71,1.81.9,2.76.5,2.48-1.1,4.83-2.17,7.13a18,18,0,0,0-1.66,7.95,3.571,3.571,0,0,1-.25,1.81,3.17,3.17,0,0,1-1.21,1.08l-4.6,2.9a2,2,0,0,1-.72.32c-.9.14-1.45-.89-2-1.58-1.54-1.84-4.47-1.7-6.64-.66s-3.95,2.75-6.13,3.74c-5.11,2.33-11,.26-16.53-.81a36.479,36.479,0,0,1-5.59-1.26,26,26,0,0,1-4.9-2.63,17.47,17.47,0,0,1-4.19-3.29,5.91,5.91,0,0,1-1.39-5.42c.45-1.61,1.89-3.06,1.6-4.85C267.376,273.41,262.746,271.56,260.736,269.52Z" transform="translate(573.816 -37.15)" opacity="0.1"/><path d="M260.737,268.3a9.21,9.21,0,0,1-.33-12.15c1.06-1.19,2.45-2.11,3.32-3.45a15.321,15.321,0,0,1,1.62-2.67c1.58-1.61,4.24-1.18,6.41-1.84s3.64-2.27,5.25-3.72a40.83,40.83,0,0,1,8.55-6c3.18-1.66,6.77-2.92,10.31-2.34,2.77.46,5.24,2,7.95,2.77,3.84,1.09,8.57.86,11,4,1.15,1.52,1.48,3.53,2.57,5.1,1.54,2.22,4.37,3.26,6,5.45,1.79,2.47,1.6,5.86.83,8.81-.51,1.9-1.23,3.87-.78,5.79.22.94.71,1.81.9,2.76.5,2.48-1.1,4.83-2.17,7.12a18,18,0,0,0-1.71,8.07,3.61,3.61,0,0,1-.25,1.82A3.34,3.34,0,0,1,319,288.9l-4.6,2.89a2,2,0,0,1-.72.33c-.9.13-1.45-.89-2-1.59-1.54-1.84-4.47-1.69-6.64-.66s-3.95,2.75-6.13,3.74c-5.11,2.33-11,.26-16.53-.8a37.731,37.731,0,0,1-5.59-1.27,26,26,0,0,1-4.9-2.62,17.51,17.51,0,0,1-4.19-3.3,5.89,5.89,0,0,1-1.39-5.41c.45-1.62,1.89-3.07,1.6-4.85C267.377,272.18,262.747,270.33,260.737,268.3Z" transform="translate(573.815 -37.15)" fill="#464353"/><path d="M282.332,373.57c.16,4.13-3.36,9.64-3.36,9.64-1.07,2.6-14.23,14.69-14.23,14.69l-10.41,7s-13.93,8.57-17.22,10.1c-1.65.77-3.42,4-4.79,7.16s-2.32,6-2.32,6A13.69,13.69,0,0,1,218.372,416c-.39-3.94-.65-7.48-.31-7.55.77-.15,9.34-6.58,9.34-6.58s9.94-6.43,13.16-12.85,15.76-16.22,15.76-16.22l-.2-.37-.72-1.32-1.53-5.05,24-10.71s.59,1.95,1.35,4.62C280.522,364.47,282.242,371,282.332,373.57Z" transform="translate(656.629 -37.15)" fill="#ecb4b6"/><path d="M246.38,360a133.11,133.11,0,0,1-14.51,12.37c-1.49.87-6.71.33-8.62.09l-.72-1.32L221,366.09l24-10.71S245.63,357.31,246.38,360Z" transform="translate(689.491 -37.15)" opacity="0.1"/><path d="M231.648,341.43s-12.24,7.35-11.63,10.56,5.8,14.31,5.8,14.31l5.83,4.82s7.5,1.07,9.34,0,14.84-11.78,15.3-13.46,0-7.35,0-8.57-3.67-7.2-3.67-7.2l-5.36-9.48Z" transform="translate(680.384 -37.15)" fill="#464353"/><path d="M226,370.45l-3.6,9.67,6.07,5.74.28,1.73,13.47,7.75,4.28-10.81Z" transform="translate(644.872 -0.01)" opacity="0.1"/><path d="M226,369.84l-3.6,9.66,6.07,5.75.28,1.73,13.47,7.75,4.28-10.81Z" transform="translate(644.872 -0.01)" fill="#5e5a6b"/><g transform="translate(832.09 220.01)" opacity="0.1"><path d="M324.549,274.6a3.48,3.48,0,0,0,.2-1.73c-.5-3.13-5.13-5-7.14-7a8.73,8.73,0,0,1-2.37-5,9.05,9.05,0,0,0,2.37,7.49C319.459,270.17,323.519,271.89,324.549,274.6Z" transform="translate(-315.147 -257.16)"/><path d="M316.773,270.68a25.443,25.443,0,0,1-2.11,4.88,18,18,0,0,0-1.67,7.95,3.59,3.59,0,0,1-.24,1.82,3.32,3.32,0,0,1-1.21,1.08l-4.6,2.89a1.85,1.85,0,0,1-.73.33c-.89.13-1.44-.89-2-1.58-1.54-1.84-4.48-1.7-6.64-.67s-3.95,2.75-6.13,3.75c-5.12,2.32-11,.26-16.53-.81a36.508,36.508,0,0,1-5.59-1.27,25.65,25.65,0,0,1-4.9-2.62,17.5,17.5,0,0,1-4.2-3.3,6.66,6.66,0,0,1-1.42-2.77,5.94,5.94,0,0,0,1.42,5.22,17.759,17.759,0,0,0,4.2,3.3,25.65,25.65,0,0,0,4.9,2.62,37.731,37.731,0,0,0,5.59,1.27c5.52,1.06,11.41,3.13,16.53.8,2.18-1,4-2.7,6.13-3.74s5.1-1.18,6.64.66c.58.7,1.13,1.72,2,1.59a2,2,0,0,0,.73-.33l4.6-2.89a3.51,3.51,0,0,0,1.21-1.08,3.61,3.61,0,0,0,.24-1.82,18,18,0,0,1,1.67-7.95c1.07-2.29,2.67-4.64,2.17-7.12A1.66,1.66,0,0,0,316.773,270.68Z" transform="translate(-250.821 -257.16)"/><path d="M259.262,259.89c-.49,1.86-1.19,3.79-.8,5.67.18-1.08.52-2.16.8-3.22a14.45,14.45,0,0,0,.5-5.18A16.433,16.433,0,0,1,259.262,259.89Z" transform="translate(-193.38 -257.16)"/></g><ellipse cx="21.63" cy="21.63" rx="21.63" ry="21.63" transform="translate(1070.511 111.49)" fill="#39bed5" opacity="0.1"/><ellipse cx="21.63" cy="21.63" rx="21.63" ry="21.63" transform="translate(483.401 20.35)" fill="#39bed5" opacity="0.1"/><ellipse cx="21.63" cy="21.63" rx="21.63" ry="21.63" transform="translate(140.251 105.8)" fill="#39bed5" opacity="0.1"/><ellipse cx="36.25" cy="36.25" rx="36.25" ry="36.25" transform="translate(1012.641 216.2)" fill="#39bed5" opacity="0.1"/><ellipse cx="36.25" cy="36.25" rx="36.25" ry="36.25" transform="translate(569.881 753.21)" fill="#39bed5" opacity="0.1"/><ellipse cx="36.25" cy="36.25" rx="36.25" ry="36.25" transform="translate(86.971 732.31)" fill="#39bed5" opacity="0.1"/></g></g></svg>