<?xml version="1.0" encoding="utf-8"?>
<!-- Generator: Adobe Illustrator 24.2.3, SVG Export Plug-In . SVG Version: 6.00 Build 0)  -->
<svg version="1.1" id="Capa_1" xmlns="http://www.w3.org/2000/svg" xmlns:xlink="http://www.w3.org/1999/xlink" x="0px" y="0px"
	 viewBox="0 0 577.9 551.2" style="enable-background:new 0 0 577.9 551.2;" xml:space="preserve">
<style type="text/css">
	.st0{fill:#3EBCD4;}
	.st1{fill:none;}
	.st2{fill:#FFFFFF;}
	.st3{enable-background:new    ;}
</style>
<polygon class="st0" points="231.3,160.4 346.9,267 231.3,373.6 29,186.9 231.3,0.3 281.5,46.8 252.9,73.7 231.3,53.5 86.7,186.9 
	231.3,320.5 289.4,266.6 202.3,186.9 "/>
<path class="st0" d="M-224.9,272.7"/>
<path class="st0" d="M-81.5,316.5"/>
<g>
	<path class="st0" d="M347.3,373.4l201.9-186.7L347.4,0.5c0.4,1.1,0.4,2.4-0.5,3.7v49.1l144.6,133.5L346.9,320.2"/>
</g>
<line class="st1" x1="367.9" y1="358.6" x2="367.9" y2="356.3"/>
<line class="st1" x1="-98.4" y1="50.4" x2="-98.3" y2="53"/>
<path class="st2" d="M353.9,73.4"/>
<path class="st2" d="M327.2,44.7"/>
<g>
	<g class="st3">
		<path class="st0" d="M39.5,460.6v-49.2c0-13.8,6.3-20.8,18.8-20.8h35.7l6.1,5.3v6.8H58.4c-4.5,0-6.8,2.5-6.8,7.4v51.8
			c0,4.9,2.3,7.4,6.8,7.4h31.9v-29.2h-19V428h31.1v53.4H58.3C45.7,481.3,39.5,474.4,39.5,460.6z"/>
		<path class="st0" d="M118.9,461.1v-28.3c0-13.4,6.1-20.1,18.3-20.1H154c12.2,0,18.3,6.7,18.3,20.1v28.3c0,13.5-6.1,20.2-18.3,20.2
			h-16.8C125,481.3,118.9,474.6,118.9,461.1z M130.5,462.4c0,5.2,2.4,7.8,7.1,7.8h16.2c4.6,0,6.9-2.6,6.9-7.8v-30.9
			c0-5.1-2.3-7.6-6.9-7.6h-16.2c-4.7,0-7.1,2.5-7.1,7.6V462.4z"/>
	</g>
</g>
<g>
	<g class="st3">
		<path class="st0" d="M182.3,481.3v-60.5c2.8-5.4,8.1-8.2,15.9-8.2h12.3l5.5,4.5v6.7h-15.6c-3.1,0-5.3,0.9-6.6,2.6v54.8H182.3z"/>
	</g>
</g>
<g>
	<g class="st3">
		<path class="st0" d="M235.6,481.3c-12.3,0-18.4-6.7-18.4-20.1s6.1-20.1,18.4-20.1h20.2v-9.6c0-5.1-2.3-7.6-6.9-7.6h-25.6v-6.7
			l5.5-4.5h20.3c12.2,0,18.3,6.7,18.3,20.1v48.5H235.6z M228.8,462.4c0,5.2,2.4,7.8,7.1,7.8h20v-19.1h-20c-4.7,0-7.1,2.6-7.1,7.8
			V462.4z"/>
	</g>
</g>
<g>
	<g class="st3">
		<path class="st0" d="M271.7,414.8l1.3-2.1h10.1l17,57.5h2.2l17.1-57.5h9.9l1.3,2.1l-28.4,92.8h-10.1l-1.2-2.1l7.8-24.2h-6.6
			L271.7,414.8z"/>
		<path class="st0" d="M370,481.3v-90.7H402c20.6,0,30.9,11.4,30.9,34.2v22.4c0,22.8-10.3,34.2-30.9,34.2H370z M382.1,469.3h20.6
			c12.1,0,18.2-6.7,18.2-20v-26.6c0-13.3-6.1-20-18.2-20h-20.6V469.3z"/>
		<path class="st0" d="M449.4,461.1v-28.3c0-13.4,6.1-20.1,18.3-20.1h15.6c12.2,0,18.3,6.7,18.3,20.1v18.9H461v10.7
			c0,5.2,2.4,7.8,7.1,7.8h31.1v6.7l-5.4,4.5h-26.1C455.5,481.3,449.4,474.6,449.4,461.1z M461,441.8h29v-10.3c0-5.1-2.3-7.6-6.9-7.6
			h-15c-4.7,0-7.1,2.5-7.1,7.6V441.8z"/>
		<path class="st0" d="M512.2,414.8l1.3-2.1h10.1l17,57.5h2.2l17.1-57.5h9.9l1.3,2.1l-20.3,66.5h-18.1L512.2,414.8z"/>
	</g>
</g>
</svg>
