<svg id="Capa_1" data-name="Capa 1" xmlns="http://www.w3.org/2000/svg" viewBox="0 0 577.87 551.21"><defs><style>.cls-1,.cls-3{fill:#3ebcd4;}.cls-2{fill:#fff;}.cls-3{font-size:131.49px;font-family:Mukta-Regular, Mukta;}.cls-4{letter-spacing:-0.02em;}.cls-5{letter-spacing:0em;}.cls-6{letter-spacing:0em;}</style></defs><polygon class="cls-1" points="202.27 160.09 317.88 266.77 202.27 373.44 0 186.72 202.27 0 252.52 46.59 223.94 73.39 202.27 53.25 57.71 186.72 202.27 320.19 260.35 266.43 173.32 186.72 202.27 160.09"/><polyline class="cls-1" points="353.54 73.67 375.6 53.25 520.16 186.72 375.6 320.19 353.93 300.05 325.35 326.85 375.96 373.44 577.87 186.72 375.6 0 326.74 45.08"/><path class="cls-2" d="M362.57,307.93" transform="translate(-8.7 -234.56)"/><path class="cls-2" d="M335.9,279.22" transform="translate(-8.7 -234.56)"/><text class="cls-3" transform="translate(0 484.41) scale(0.91 1)">Go<tspan class="cls-4" x="152" y="0">r</tspan><tspan class="cls-5" x="198.94" y="0">a</tspan><tspan class="cls-6" x="262.98" y="0">y Code</tspan></text></svg>